<mxfile host="Electron" modified="2024-01-02T07:38:21.369Z" agent="Mozilla/5.0 (Windows NT 10.0; Win64; x64) AppleWebKit/537.36 (KHTML, like Gecko) draw.io/22.0.3 Chrome/114.0.5735.289 Electron/25.8.4 Safari/537.36" etag="nkfKELbhAd2GceAAhMzi" version="22.0.3" type="device">
  <diagram name="Page-1" id="_RpfMvQ0ge_tOMSD7wO3">
    <mxGraphModel dx="2160" dy="1390" grid="1" gridSize="10" guides="1" tooltips="1" connect="1" arrows="1" fold="1" page="1" pageScale="1" pageWidth="850" pageHeight="1100" math="0" shadow="0">
      <root>
        <mxCell id="0" />
        <mxCell id="1" parent="0" />
        <mxCell id="mCqHA8PRsqlgezRZw-1g-1" value="User Management" style="swimlane;childLayout=stackLayout;resizeParent=1;resizeParentMax=0;startSize=20;html=1;fontSize=22;strokeWidth=3;" parent="1" vertex="1">
          <mxGeometry x="250" y="30" width="2340" height="2930" as="geometry" />
        </mxCell>
        <mxCell id="mCqHA8PRsqlgezRZw-1g-2" value="Client Browser" style="swimlane;startSize=20;html=1;fontSize=22;strokeWidth=3;" parent="mCqHA8PRsqlgezRZw-1g-1" vertex="1">
          <mxGeometry y="20" width="490" height="2910" as="geometry" />
        </mxCell>
        <mxCell id="mCqHA8PRsqlgezRZw-1g-6" value="" style="ellipse;html=1;shape=startState;fillColor=#000000;strokeColor=#000000;gradientColor=none;fontSize=22;strokeWidth=3;" parent="mCqHA8PRsqlgezRZw-1g-2" vertex="1">
          <mxGeometry x="219.99999999999955" y="40" width="50" height="50" as="geometry" />
        </mxCell>
        <mxCell id="mCqHA8PRsqlgezRZw-1g-8" value="Login to Ubuntu" style="rounded=1;whiteSpace=wrap;html=1;fontSize=22;strokeWidth=3;" parent="mCqHA8PRsqlgezRZw-1g-2" vertex="1">
          <mxGeometry x="184.99999999999955" y="230" width="120" height="105" as="geometry" />
        </mxCell>
        <mxCell id="mCqHA8PRsqlgezRZw-1g-18" value="" style="endArrow=classic;html=1;rounded=0;exitX=0.5;exitY=1;exitDx=0;exitDy=0;entryX=0.5;entryY=0;entryDx=0;entryDy=0;fontSize=22;strokeWidth=3;" parent="mCqHA8PRsqlgezRZw-1g-2" source="mCqHA8PRsqlgezRZw-1g-6" target="mCqHA8PRsqlgezRZw-1g-20" edge="1">
          <mxGeometry width="50" height="50" relative="1" as="geometry">
            <mxPoint x="254.99999999999955" y="240" as="sourcePoint" />
            <mxPoint x="44.999999999999545" y="100" as="targetPoint" />
          </mxGeometry>
        </mxCell>
        <mxCell id="mCqHA8PRsqlgezRZw-1g-20" value="" style="rhombus;whiteSpace=wrap;html=1;fontSize=22;strokeWidth=3;" parent="mCqHA8PRsqlgezRZw-1g-2" vertex="1">
          <mxGeometry x="207.5" y="140" width="75" height="40" as="geometry" />
        </mxCell>
        <mxCell id="mCqHA8PRsqlgezRZw-1g-22" value="Use Ubuntu Computer via Terminal and File Explorer GUI" style="rounded=1;whiteSpace=wrap;html=1;fontSize=22;strokeWidth=3;" parent="mCqHA8PRsqlgezRZw-1g-2" vertex="1">
          <mxGeometry x="175" y="385" width="185" height="115" as="geometry" />
        </mxCell>
        <mxCell id="mCqHA8PRsqlgezRZw-1g-25" value="Register to Ubuntu" style="rounded=1;whiteSpace=wrap;html=1;fontSize=22;strokeWidth=3;" parent="mCqHA8PRsqlgezRZw-1g-2" vertex="1">
          <mxGeometry x="344.99999999999955" y="230" width="120" height="105" as="geometry" />
        </mxCell>
        <mxCell id="mCqHA8PRsqlgezRZw-1g-23" value="" style="endArrow=classic;html=1;rounded=0;entryX=0.5;entryY=0;entryDx=0;entryDy=0;fontSize=22;strokeWidth=3;" parent="mCqHA8PRsqlgezRZw-1g-2" source="mCqHA8PRsqlgezRZw-1g-20" target="mCqHA8PRsqlgezRZw-1g-8" edge="1">
          <mxGeometry width="50" height="50" relative="1" as="geometry">
            <mxPoint x="585" y="240" as="sourcePoint" />
            <mxPoint x="635" y="190" as="targetPoint" />
          </mxGeometry>
        </mxCell>
        <mxCell id="mCqHA8PRsqlgezRZw-1g-30" value="" style="endArrow=classic;html=1;rounded=0;entryX=0.5;entryY=0;entryDx=0;entryDy=0;fontSize=22;strokeWidth=3;" parent="mCqHA8PRsqlgezRZw-1g-2" source="mCqHA8PRsqlgezRZw-1g-20" target="mCqHA8PRsqlgezRZw-1g-25" edge="1">
          <mxGeometry width="50" height="50" relative="1" as="geometry">
            <mxPoint x="525" y="280" as="sourcePoint" />
            <mxPoint x="575" y="230" as="targetPoint" />
          </mxGeometry>
        </mxCell>
        <mxCell id="mCqHA8PRsqlgezRZw-1g-39" value="" style="ellipse;html=1;shape=endState;fillColor=#000000;strokeColor=#000000;fontSize=22;strokeWidth=3;" parent="mCqHA8PRsqlgezRZw-1g-2" vertex="1">
          <mxGeometry x="245" y="610" width="45" height="45" as="geometry" />
        </mxCell>
        <mxCell id="mCqHA8PRsqlgezRZw-1g-40" value="" style="endArrow=classic;html=1;rounded=0;exitX=0.5;exitY=1;exitDx=0;exitDy=0;entryX=0.5;entryY=0;entryDx=0;entryDy=0;fontSize=22;strokeWidth=3;" parent="mCqHA8PRsqlgezRZw-1g-2" source="mCqHA8PRsqlgezRZw-1g-22" target="mCqHA8PRsqlgezRZw-1g-39" edge="1">
          <mxGeometry width="50" height="50" relative="1" as="geometry">
            <mxPoint x="115" y="520" as="sourcePoint" />
            <mxPoint x="165" y="470" as="targetPoint" />
          </mxGeometry>
        </mxCell>
        <mxCell id="jY21YstiSSDHYYgxmUfP-3" value="Change Password" style="rounded=1;whiteSpace=wrap;html=1;fontSize=22;strokeWidth=3;" parent="mCqHA8PRsqlgezRZw-1g-2" vertex="1">
          <mxGeometry x="29.999999999999545" y="230" width="120" height="105" as="geometry" />
        </mxCell>
        <mxCell id="jY21YstiSSDHYYgxmUfP-115" value="Get Email" style="rounded=1;whiteSpace=wrap;html=1;fontSize=22;strokeWidth=3;" parent="mCqHA8PRsqlgezRZw-1g-2" vertex="1">
          <mxGeometry x="155" y="1040" width="180" height="105" as="geometry" />
        </mxCell>
        <mxCell id="jY21YstiSSDHYYgxmUfP-120" value="Enter Change Password Codes" style="rounded=1;whiteSpace=wrap;html=1;fontSize=22;strokeWidth=3;" parent="mCqHA8PRsqlgezRZw-1g-2" vertex="1">
          <mxGeometry x="125" y="1360" width="240" height="105" as="geometry" />
        </mxCell>
        <mxCell id="jY21YstiSSDHYYgxmUfP-123" value="Enter New Password and Send Request" style="rounded=1;whiteSpace=wrap;html=1;fontSize=22;strokeWidth=3;" parent="mCqHA8PRsqlgezRZw-1g-2" vertex="1">
          <mxGeometry x="157.5" y="1520" width="175" height="100" as="geometry" />
        </mxCell>
        <mxCell id="jY21YstiSSDHYYgxmUfP-125" value="" style="endArrow=classic;html=1;rounded=0;entryX=0.5;entryY=0;entryDx=0;entryDy=0;exitX=0.5;exitY=1;exitDx=0;exitDy=0;strokeWidth=3;" parent="mCqHA8PRsqlgezRZw-1g-2" source="jY21YstiSSDHYYgxmUfP-169" target="jY21YstiSSDHYYgxmUfP-120" edge="1">
          <mxGeometry width="50" height="50" relative="1" as="geometry">
            <mxPoint x="190" y="1270" as="sourcePoint" />
            <mxPoint x="470" y="1260" as="targetPoint" />
          </mxGeometry>
        </mxCell>
        <mxCell id="jY21YstiSSDHYYgxmUfP-128" value="" style="endArrow=classic;html=1;rounded=0;exitX=0.5;exitY=1;exitDx=0;exitDy=0;entryX=0.5;entryY=0;entryDx=0;entryDy=0;strokeWidth=3;" parent="mCqHA8PRsqlgezRZw-1g-2" source="jY21YstiSSDHYYgxmUfP-120" target="jY21YstiSSDHYYgxmUfP-123" edge="1">
          <mxGeometry width="50" height="50" relative="1" as="geometry">
            <mxPoint x="320" y="1460" as="sourcePoint" />
            <mxPoint x="370" y="1410" as="targetPoint" />
          </mxGeometry>
        </mxCell>
        <mxCell id="jY21YstiSSDHYYgxmUfP-168" value="Get Execution Results" style="rounded=1;whiteSpace=wrap;html=1;fontSize=22;strokeWidth=3;" parent="mCqHA8PRsqlgezRZw-1g-2" vertex="1">
          <mxGeometry x="184.99999999999955" y="1650" width="120" height="105" as="geometry" />
        </mxCell>
        <mxCell id="jY21YstiSSDHYYgxmUfP-169" value="Go to Change Password Site" style="rounded=1;whiteSpace=wrap;html=1;fontSize=22;strokeWidth=3;" parent="mCqHA8PRsqlgezRZw-1g-2" vertex="1">
          <mxGeometry x="155" y="1190" width="180" height="105" as="geometry" />
        </mxCell>
        <mxCell id="jY21YstiSSDHYYgxmUfP-171" value="" style="endArrow=classic;html=1;rounded=0;exitX=0.5;exitY=1;exitDx=0;exitDy=0;entryX=0.5;entryY=0;entryDx=0;entryDy=0;strokeWidth=3;" parent="mCqHA8PRsqlgezRZw-1g-2" source="jY21YstiSSDHYYgxmUfP-115" target="jY21YstiSSDHYYgxmUfP-169" edge="1">
          <mxGeometry width="50" height="50" relative="1" as="geometry">
            <mxPoint x="-120" y="1280" as="sourcePoint" />
            <mxPoint x="-70" y="1230" as="targetPoint" />
          </mxGeometry>
        </mxCell>
        <mxCell id="jY21YstiSSDHYYgxmUfP-178" value="" style="endArrow=classic;html=1;rounded=0;exitX=0;exitY=0.5;exitDx=0;exitDy=0;entryX=0;entryY=0.5;entryDx=0;entryDy=0;edgeStyle=orthogonalEdgeStyle;strokeWidth=3;" parent="mCqHA8PRsqlgezRZw-1g-2" source="jY21YstiSSDHYYgxmUfP-168" target="mCqHA8PRsqlgezRZw-1g-20" edge="1">
          <mxGeometry width="50" height="50" relative="1" as="geometry">
            <mxPoint x="620" y="1340" as="sourcePoint" />
            <mxPoint x="670" y="1290" as="targetPoint" />
            <Array as="points">
              <mxPoint x="20" y="1703" />
              <mxPoint x="20" y="160" />
            </Array>
          </mxGeometry>
        </mxCell>
        <mxCell id="jY21YstiSSDHYYgxmUfP-216" value="" style="endArrow=classic;html=1;rounded=0;entryX=0.5;entryY=0;entryDx=0;entryDy=0;strokeWidth=3;" parent="mCqHA8PRsqlgezRZw-1g-2" source="mCqHA8PRsqlgezRZw-1g-20" target="jY21YstiSSDHYYgxmUfP-3" edge="1">
          <mxGeometry width="50" height="50" relative="1" as="geometry">
            <mxPoint x="180" y="200" as="sourcePoint" />
            <mxPoint x="1210" y="680" as="targetPoint" />
          </mxGeometry>
        </mxCell>
        <mxCell id="mCqHA8PRsqlgezRZw-1g-3" value="Web Server" style="swimlane;startSize=20;html=1;fontSize=22;strokeWidth=3;" parent="mCqHA8PRsqlgezRZw-1g-1" vertex="1">
          <mxGeometry x="490" y="20" width="390" height="2910" as="geometry" />
        </mxCell>
        <mxCell id="mCqHA8PRsqlgezRZw-1g-26" value="NodeJS" style="swimlane;fontSize=22;strokeWidth=3;" parent="mCqHA8PRsqlgezRZw-1g-3" vertex="1">
          <mxGeometry x="35" y="60" width="335" height="2220" as="geometry" />
        </mxCell>
        <mxCell id="mCqHA8PRsqlgezRZw-1g-27" value="Express" style="swimlane;fontSize=22;strokeWidth=3;" parent="mCqHA8PRsqlgezRZw-1g-26" vertex="1">
          <mxGeometry x="20" y="50" width="300" height="2130" as="geometry" />
        </mxCell>
        <mxCell id="mCqHA8PRsqlgezRZw-1g-29" value="Socket.IO" style="swimlane;fontSize=22;strokeWidth=3;" parent="mCqHA8PRsqlgezRZw-1g-27" vertex="1">
          <mxGeometry x="60" y="250" width="200" height="140" as="geometry" />
        </mxCell>
        <mxCell id="mCqHA8PRsqlgezRZw-1g-12" value="Start a SSH Connection&lt;br style=&quot;font-size: 22px;&quot;&gt;in Socket.IO" style="rounded=1;whiteSpace=wrap;html=1;fontSize=22;strokeWidth=3;" parent="mCqHA8PRsqlgezRZw-1g-29" vertex="1">
          <mxGeometry x="40" y="30" width="120" height="105" as="geometry" />
        </mxCell>
        <mxCell id="mCqHA8PRsqlgezRZw-1g-10" value="Process Login Request" style="rounded=1;whiteSpace=wrap;html=1;fontSize=22;strokeWidth=3;" parent="mCqHA8PRsqlgezRZw-1g-27" vertex="1">
          <mxGeometry x="19.999999999999545" y="70" width="120" height="105" as="geometry" />
        </mxCell>
        <mxCell id="mCqHA8PRsqlgezRZw-1g-9" value="Create a new SSH Connection" style="rounded=1;whiteSpace=wrap;html=1;fontSize=22;strokeWidth=3;" parent="mCqHA8PRsqlgezRZw-1g-27" vertex="1">
          <mxGeometry x="169.99999999999955" y="70" width="120" height="105" as="geometry" />
        </mxCell>
        <mxCell id="mCqHA8PRsqlgezRZw-1g-11" value="" style="endArrow=classic;html=1;rounded=0;entryX=0;entryY=0.5;entryDx=0;entryDy=0;fontSize=22;strokeWidth=3;" parent="mCqHA8PRsqlgezRZw-1g-27" source="mCqHA8PRsqlgezRZw-1g-10" target="mCqHA8PRsqlgezRZw-1g-9" edge="1">
          <mxGeometry width="50" height="50" relative="1" as="geometry">
            <mxPoint x="139.99999999999955" y="185" as="sourcePoint" />
            <mxPoint x="434.99999999999955" y="187" as="targetPoint" />
          </mxGeometry>
        </mxCell>
        <mxCell id="jY21YstiSSDHYYgxmUfP-2" value="Preprocess Register Request" style="rounded=1;whiteSpace=wrap;html=1;fontSize=22;strokeWidth=3;" parent="mCqHA8PRsqlgezRZw-1g-27" vertex="1">
          <mxGeometry x="19.999999999999545" y="430" width="120" height="105" as="geometry" />
        </mxCell>
        <mxCell id="jY21YstiSSDHYYgxmUfP-13" value="Create Backup Record" style="rounded=1;whiteSpace=wrap;html=1;fontSize=22;strokeWidth=3;" parent="mCqHA8PRsqlgezRZw-1g-27" vertex="1">
          <mxGeometry x="164.99999999999955" y="430" width="120" height="105" as="geometry" />
        </mxCell>
        <mxCell id="jY21YstiSSDHYYgxmUfP-15" value="Send Request to Ubuntu Server" style="rounded=1;whiteSpace=wrap;html=1;fontSize=22;strokeWidth=3;" parent="mCqHA8PRsqlgezRZw-1g-27" vertex="1">
          <mxGeometry x="160" y="550" width="130" height="105" as="geometry" />
        </mxCell>
        <mxCell id="jY21YstiSSDHYYgxmUfP-41" value="" style="endArrow=classic;html=1;rounded=0;exitX=1;exitY=0.5;exitDx=0;exitDy=0;entryX=0;entryY=0.5;entryDx=0;entryDy=0;fontSize=22;strokeWidth=3;" parent="mCqHA8PRsqlgezRZw-1g-27" source="jY21YstiSSDHYYgxmUfP-2" target="jY21YstiSSDHYYgxmUfP-13" edge="1">
          <mxGeometry width="50" height="50" relative="1" as="geometry">
            <mxPoint x="305" y="530" as="sourcePoint" />
            <mxPoint x="355" y="480" as="targetPoint" />
          </mxGeometry>
        </mxCell>
        <mxCell id="jY21YstiSSDHYYgxmUfP-42" value="" style="endArrow=classic;html=1;rounded=0;exitX=0.5;exitY=1;exitDx=0;exitDy=0;entryX=0.5;entryY=0;entryDx=0;entryDy=0;fontSize=22;strokeWidth=3;" parent="mCqHA8PRsqlgezRZw-1g-27" source="jY21YstiSSDHYYgxmUfP-13" target="jY21YstiSSDHYYgxmUfP-15" edge="1">
          <mxGeometry width="50" height="50" relative="1" as="geometry">
            <mxPoint x="155" y="800" as="sourcePoint" />
            <mxPoint x="205" y="750" as="targetPoint" />
          </mxGeometry>
        </mxCell>
        <mxCell id="jY21YstiSSDHYYgxmUfP-50" value="Preprocess Change Password Request" style="rounded=1;whiteSpace=wrap;html=1;fontSize=22;strokeWidth=3;" parent="mCqHA8PRsqlgezRZw-1g-27" vertex="1">
          <mxGeometry x="10" y="800" width="130" height="105" as="geometry" />
        </mxCell>
        <mxCell id="jY21YstiSSDHYYgxmUfP-51" value="Send Change Password Request" style="rounded=1;whiteSpace=wrap;html=1;fontSize=22;strokeWidth=3;" parent="mCqHA8PRsqlgezRZw-1g-27" vertex="1">
          <mxGeometry x="155" y="800" width="130" height="105" as="geometry" />
        </mxCell>
        <mxCell id="jY21YstiSSDHYYgxmUfP-110" value="" style="endArrow=classic;html=1;rounded=0;exitX=1;exitY=0.5;exitDx=0;exitDy=0;entryX=0;entryY=0.5;entryDx=0;entryDy=0;strokeWidth=3;" parent="mCqHA8PRsqlgezRZw-1g-27" source="jY21YstiSSDHYYgxmUfP-50" target="jY21YstiSSDHYYgxmUfP-51" edge="1">
          <mxGeometry width="50" height="50" relative="1" as="geometry">
            <mxPoint x="-95" y="580" as="sourcePoint" />
            <mxPoint x="-45" y="530" as="targetPoint" />
          </mxGeometry>
        </mxCell>
        <mxCell id="jY21YstiSSDHYYgxmUfP-129" value="Preprocess Request" style="rounded=1;whiteSpace=wrap;html=1;fontSize=22;strokeWidth=3;" parent="mCqHA8PRsqlgezRZw-1g-27" vertex="1">
          <mxGeometry x="10" y="1407.5" width="130" height="105" as="geometry" />
        </mxCell>
        <mxCell id="jY21YstiSSDHYYgxmUfP-130" value="Send Change Password Request" style="rounded=1;whiteSpace=wrap;html=1;fontSize=22;strokeWidth=3;" parent="mCqHA8PRsqlgezRZw-1g-27" vertex="1">
          <mxGeometry x="165" y="1407.5" width="130" height="105" as="geometry" />
        </mxCell>
        <mxCell id="jY21YstiSSDHYYgxmUfP-132" value="" style="endArrow=classic;html=1;rounded=0;exitX=1;exitY=0.5;exitDx=0;exitDy=0;entryX=0;entryY=0.5;entryDx=0;entryDy=0;strokeWidth=3;" parent="mCqHA8PRsqlgezRZw-1g-27" source="jY21YstiSSDHYYgxmUfP-129" target="jY21YstiSSDHYYgxmUfP-130" edge="1">
          <mxGeometry width="50" height="50" relative="1" as="geometry">
            <mxPoint x="-202" y="1380" as="sourcePoint" />
            <mxPoint x="25" y="1380" as="targetPoint" />
          </mxGeometry>
        </mxCell>
        <mxCell id="jY21YstiSSDHYYgxmUfP-172" value="Transfer Execution Results" style="rounded=1;whiteSpace=wrap;html=1;fontSize=22;strokeWidth=3;" parent="mCqHA8PRsqlgezRZw-1g-27" vertex="1">
          <mxGeometry x="89.99999999999955" y="1540" width="120" height="105" as="geometry" />
        </mxCell>
        <mxCell id="mCqHA8PRsqlgezRZw-1g-4" value="Ubuntu Server" style="swimlane;startSize=20;html=1;fontSize=22;strokeWidth=3;" parent="mCqHA8PRsqlgezRZw-1g-1" vertex="1">
          <mxGeometry x="880" y="20" width="610" height="2910" as="geometry" />
        </mxCell>
        <mxCell id="mCqHA8PRsqlgezRZw-1g-36" value="OpenSSH" style="swimlane;fontSize=22;strokeWidth=3;" parent="mCqHA8PRsqlgezRZw-1g-4" vertex="1">
          <mxGeometry x="37.5" y="90" width="382.5" height="240" as="geometry" />
        </mxCell>
        <mxCell id="mCqHA8PRsqlgezRZw-1g-13" value="SSH Connection Granted" style="rounded=1;whiteSpace=wrap;html=1;fontSize=22;strokeWidth=3;" parent="mCqHA8PRsqlgezRZw-1g-36" vertex="1">
          <mxGeometry x="221.49999999999955" y="90" width="120" height="105" as="geometry" />
        </mxCell>
        <mxCell id="mCqHA8PRsqlgezRZw-1g-78" value="Login Check" style="rounded=1;whiteSpace=wrap;html=1;fontSize=22;strokeWidth=3;" parent="mCqHA8PRsqlgezRZw-1g-36" vertex="1">
          <mxGeometry x="47.499999999999545" y="90" width="120" height="105" as="geometry" />
        </mxCell>
        <mxCell id="mCqHA8PRsqlgezRZw-1g-80" value="" style="endArrow=classic;html=1;rounded=0;fontSize=22;entryX=0;entryY=0.5;entryDx=0;entryDy=0;exitX=1;exitY=0.5;exitDx=0;exitDy=0;strokeWidth=3;" parent="mCqHA8PRsqlgezRZw-1g-36" source="mCqHA8PRsqlgezRZw-1g-78" target="mCqHA8PRsqlgezRZw-1g-13" edge="1">
          <mxGeometry width="50" height="50" relative="1" as="geometry">
            <mxPoint x="-72.5" y="140" as="sourcePoint" />
            <mxPoint x="57.5" y="140" as="targetPoint" />
          </mxGeometry>
        </mxCell>
        <mxCell id="mCqHA8PRsqlgezRZw-1g-42" value="NodeJS" style="swimlane;fontSize=22;strokeWidth=3;" parent="mCqHA8PRsqlgezRZw-1g-4" vertex="1">
          <mxGeometry x="20" y="365" width="500" height="2505" as="geometry" />
        </mxCell>
        <mxCell id="mCqHA8PRsqlgezRZw-1g-43" value="Express" style="swimlane;fontSize=22;strokeWidth=3;" parent="mCqHA8PRsqlgezRZw-1g-42" vertex="1">
          <mxGeometry x="31" y="42.5" width="439" height="2437.5" as="geometry" />
        </mxCell>
        <mxCell id="mCqHA8PRsqlgezRZw-1g-45" value="Process Admin&lt;br style=&quot;font-size: 22px;&quot;&gt;Login" style="rounded=1;whiteSpace=wrap;html=1;fontSize=22;strokeWidth=3;" parent="mCqHA8PRsqlgezRZw-1g-43" vertex="1">
          <mxGeometry x="176.99999999999955" y="47.5" width="120" height="105" as="geometry" />
        </mxCell>
        <mxCell id="mCqHA8PRsqlgezRZw-1g-46" value="Admin Login Granted" style="rounded=1;whiteSpace=wrap;html=1;fontSize=22;strokeWidth=3;" parent="mCqHA8PRsqlgezRZw-1g-43" vertex="1">
          <mxGeometry x="16.999999999999545" y="47.5" width="120" height="105" as="geometry" />
        </mxCell>
        <mxCell id="mCqHA8PRsqlgezRZw-1g-50" value="" style="endArrow=classic;html=1;rounded=0;exitX=0;exitY=0.5;exitDx=0;exitDy=0;entryX=1;entryY=0.5;entryDx=0;entryDy=0;fontSize=22;strokeWidth=3;" parent="mCqHA8PRsqlgezRZw-1g-43" source="mCqHA8PRsqlgezRZw-1g-45" target="mCqHA8PRsqlgezRZw-1g-46" edge="1">
          <mxGeometry width="50" height="50" relative="1" as="geometry">
            <mxPoint x="631" y="-107.5" as="sourcePoint" />
            <mxPoint x="307" y="97.5" as="targetPoint" />
          </mxGeometry>
        </mxCell>
        <mxCell id="mCqHA8PRsqlgezRZw-1g-62" value="Process Activate User Request" style="rounded=1;whiteSpace=wrap;html=1;fontSize=22;strokeWidth=3;" parent="mCqHA8PRsqlgezRZw-1g-43" vertex="1">
          <mxGeometry x="296.99999999999955" y="362.5" width="120" height="105" as="geometry" />
        </mxCell>
        <mxCell id="mCqHA8PRsqlgezRZw-1g-65" value="Activate User" style="rounded=1;whiteSpace=wrap;html=1;fontSize=22;strokeWidth=3;" parent="mCqHA8PRsqlgezRZw-1g-43" vertex="1">
          <mxGeometry x="159.49999999999955" y="482.5" width="120" height="105" as="geometry" />
        </mxCell>
        <mxCell id="mCqHA8PRsqlgezRZw-1g-67" value="Send Activation Email" style="rounded=1;whiteSpace=wrap;html=1;fontSize=22;strokeWidth=3;" parent="mCqHA8PRsqlgezRZw-1g-43" vertex="1">
          <mxGeometry x="56.999999999999545" y="632.5" width="120" height="105" as="geometry" />
        </mxCell>
        <mxCell id="mCqHA8PRsqlgezRZw-1g-69" value="Get Execution Results" style="rounded=1;whiteSpace=wrap;html=1;fontSize=22;strokeWidth=3;" parent="mCqHA8PRsqlgezRZw-1g-43" vertex="1">
          <mxGeometry x="308.99999999999955" y="482.5" width="120" height="105" as="geometry" />
        </mxCell>
        <mxCell id="mCqHA8PRsqlgezRZw-1g-72" value="" style="endArrow=classic;html=1;rounded=0;exitX=0;exitY=0.5;exitDx=0;exitDy=0;entryX=1;entryY=0.5;entryDx=0;entryDy=0;fontSize=22;strokeWidth=3;" parent="mCqHA8PRsqlgezRZw-1g-43" source="mCqHA8PRsqlgezRZw-1g-62" target="jY21YstiSSDHYYgxmUfP-38" edge="1">
          <mxGeometry width="50" height="50" relative="1" as="geometry">
            <mxPoint x="433" y="412.5" as="sourcePoint" />
            <mxPoint x="141" y="452.5" as="targetPoint" />
          </mxGeometry>
        </mxCell>
        <mxCell id="mCqHA8PRsqlgezRZw-1g-73" value="" style="endArrow=classic;html=1;rounded=0;exitX=0.5;exitY=1;exitDx=0;exitDy=0;entryX=0.5;entryY=0;entryDx=0;entryDy=0;fontSize=22;edgeStyle=orthogonalEdgeStyle;strokeWidth=3;" parent="mCqHA8PRsqlgezRZw-1g-43" source="mCqHA8PRsqlgezRZw-1g-65" target="jY21YstiSSDHYYgxmUfP-75" edge="1">
          <mxGeometry width="50" height="50" relative="1" as="geometry">
            <mxPoint x="187" y="413" as="sourcePoint" />
            <mxPoint x="81" y="602.5" as="targetPoint" />
          </mxGeometry>
        </mxCell>
        <mxCell id="mCqHA8PRsqlgezRZw-1g-74" value="" style="endArrow=classic;html=1;rounded=0;entryX=0;entryY=0.5;entryDx=0;entryDy=0;exitX=1;exitY=0.5;exitDx=0;exitDy=0;edgeStyle=orthogonalEdgeStyle;fontSize=22;strokeWidth=3;" parent="mCqHA8PRsqlgezRZw-1g-43" source="mCqHA8PRsqlgezRZw-1g-65" target="mCqHA8PRsqlgezRZw-1g-69" edge="1">
          <mxGeometry width="50" height="50" relative="1" as="geometry">
            <mxPoint x="91" y="453" as="sourcePoint" />
            <mxPoint x="91" y="493" as="targetPoint" />
          </mxGeometry>
        </mxCell>
        <mxCell id="jY21YstiSSDHYYgxmUfP-17" value="Process Register Request" style="rounded=1;whiteSpace=wrap;html=1;fontSize=22;strokeWidth=3;" parent="mCqHA8PRsqlgezRZw-1g-43" vertex="1">
          <mxGeometry x="17" y="252.5" width="130" height="105" as="geometry" />
        </mxCell>
        <mxCell id="jY21YstiSSDHYYgxmUfP-36" value="Save a Record to Database" style="rounded=1;whiteSpace=wrap;html=1;fontSize=22;strokeWidth=3;" parent="mCqHA8PRsqlgezRZw-1g-43" vertex="1">
          <mxGeometry x="172" y="252.5" width="130" height="105" as="geometry" />
        </mxCell>
        <mxCell id="jY21YstiSSDHYYgxmUfP-38" value="" style="rounded=0;whiteSpace=wrap;html=1;rotation=0;fillColor=#000000;fontSize=22;strokeWidth=3;" parent="mCqHA8PRsqlgezRZw-1g-43" vertex="1">
          <mxGeometry x="188" y="411.25" width="63" height="7.5" as="geometry" />
        </mxCell>
        <mxCell id="jY21YstiSSDHYYgxmUfP-45" value="" style="endArrow=classic;html=1;rounded=0;exitX=1;exitY=0.5;exitDx=0;exitDy=0;entryX=0;entryY=0.5;entryDx=0;entryDy=0;fontSize=22;strokeWidth=3;" parent="mCqHA8PRsqlgezRZw-1g-43" source="jY21YstiSSDHYYgxmUfP-17" target="jY21YstiSSDHYYgxmUfP-36" edge="1">
          <mxGeometry width="50" height="50" relative="1" as="geometry">
            <mxPoint x="-104" y="302.5" as="sourcePoint" />
            <mxPoint x="27" y="302.5" as="targetPoint" />
          </mxGeometry>
        </mxCell>
        <mxCell id="jY21YstiSSDHYYgxmUfP-47" value="" style="endArrow=classic;html=1;rounded=0;exitX=0.5;exitY=1;exitDx=0;exitDy=0;entryX=0.5;entryY=0;entryDx=0;entryDy=0;fontSize=22;strokeWidth=3;" parent="mCqHA8PRsqlgezRZw-1g-43" source="jY21YstiSSDHYYgxmUfP-38" target="mCqHA8PRsqlgezRZw-1g-65" edge="1">
          <mxGeometry width="50" height="50" relative="1" as="geometry">
            <mxPoint x="81" y="432.5" as="sourcePoint" />
            <mxPoint x="131" y="382.5" as="targetPoint" />
          </mxGeometry>
        </mxCell>
        <mxCell id="jY21YstiSSDHYYgxmUfP-75" value="Generate Change Password Codes" style="rounded=1;whiteSpace=wrap;html=1;fontSize=22;strokeWidth=3;" parent="mCqHA8PRsqlgezRZw-1g-43" vertex="1">
          <mxGeometry x="239" y="632.5" width="147.5" height="105" as="geometry" />
        </mxCell>
        <mxCell id="jY21YstiSSDHYYgxmUfP-76" value="" style="endArrow=classic;html=1;rounded=0;exitX=0;exitY=0.5;exitDx=0;exitDy=0;entryX=1;entryY=0.5;entryDx=0;entryDy=0;fontSize=22;strokeWidth=3;" parent="mCqHA8PRsqlgezRZw-1g-43" source="jY21YstiSSDHYYgxmUfP-75" target="mCqHA8PRsqlgezRZw-1g-67" edge="1">
          <mxGeometry width="50" height="50" relative="1" as="geometry">
            <mxPoint x="91" y="573" as="sourcePoint" />
            <mxPoint x="92" y="623" as="targetPoint" />
          </mxGeometry>
        </mxCell>
        <mxCell id="jY21YstiSSDHYYgxmUfP-46" value="" style="endArrow=classic;html=1;rounded=0;exitX=0.5;exitY=1;exitDx=0;exitDy=0;edgeStyle=orthogonalEdgeStyle;entryX=0;entryY=0.5;entryDx=0;entryDy=0;fontSize=22;strokeWidth=3;" parent="mCqHA8PRsqlgezRZw-1g-43" source="jY21YstiSSDHYYgxmUfP-36" target="jY21YstiSSDHYYgxmUfP-38" edge="1">
          <mxGeometry width="50" height="50" relative="1" as="geometry">
            <mxPoint x="197" y="327.5" as="sourcePoint" />
            <mxPoint x="171" y="397.5" as="targetPoint" />
            <Array as="points">
              <mxPoint x="237" y="373" />
              <mxPoint x="101" y="373" />
              <mxPoint x="101" y="415" />
            </Array>
          </mxGeometry>
        </mxCell>
        <mxCell id="jY21YstiSSDHYYgxmUfP-79" value="Process Change Password Request" style="rounded=1;whiteSpace=wrap;html=1;fontSize=22;strokeWidth=3;" parent="mCqHA8PRsqlgezRZw-1g-43" vertex="1">
          <mxGeometry x="47" y="802.5" width="130" height="105" as="geometry" />
        </mxCell>
        <mxCell id="jY21YstiSSDHYYgxmUfP-114" value="" style="edgeStyle=orthogonalEdgeStyle;rounded=0;orthogonalLoop=1;jettySize=auto;html=1;strokeWidth=3;" parent="mCqHA8PRsqlgezRZw-1g-43" source="jY21YstiSSDHYYgxmUfP-106" target="jY21YstiSSDHYYgxmUfP-79" edge="1">
          <mxGeometry relative="1" as="geometry" />
        </mxCell>
        <mxCell id="jY21YstiSSDHYYgxmUfP-106" value="Generate Change Password Codes" style="rounded=1;whiteSpace=wrap;html=1;fontSize=22;strokeWidth=3;" parent="mCqHA8PRsqlgezRZw-1g-43" vertex="1">
          <mxGeometry x="239" y="802.5" width="147.5" height="105" as="geometry" />
        </mxCell>
        <mxCell id="jY21YstiSSDHYYgxmUfP-107" value="Send Activation Email" style="rounded=1;whiteSpace=wrap;html=1;fontSize=22;strokeWidth=3;" parent="mCqHA8PRsqlgezRZw-1g-43" vertex="1">
          <mxGeometry x="51.999999999999545" y="932.5" width="120" height="105" as="geometry" />
        </mxCell>
        <mxCell id="jY21YstiSSDHYYgxmUfP-112" value="" style="endArrow=classic;html=1;rounded=0;exitX=1;exitY=0.5;exitDx=0;exitDy=0;entryX=0;entryY=0.5;entryDx=0;entryDy=0;strokeWidth=3;" parent="mCqHA8PRsqlgezRZw-1g-43" source="jY21YstiSSDHYYgxmUfP-79" target="jY21YstiSSDHYYgxmUfP-106" edge="1">
          <mxGeometry width="50" height="50" relative="1" as="geometry">
            <mxPoint x="79" y="742.5" as="sourcePoint" />
            <mxPoint x="129" y="692.5" as="targetPoint" />
          </mxGeometry>
        </mxCell>
        <mxCell id="jY21YstiSSDHYYgxmUfP-113" value="" style="endArrow=classic;html=1;rounded=0;exitX=0.5;exitY=1;exitDx=0;exitDy=0;entryX=1;entryY=0.5;entryDx=0;entryDy=0;edgeStyle=orthogonalEdgeStyle;strokeWidth=3;" parent="mCqHA8PRsqlgezRZw-1g-43" source="jY21YstiSSDHYYgxmUfP-106" target="jY21YstiSSDHYYgxmUfP-107" edge="1">
          <mxGeometry width="50" height="50" relative="1" as="geometry">
            <mxPoint x="187" y="865" as="sourcePoint" />
            <mxPoint x="249" y="865" as="targetPoint" />
          </mxGeometry>
        </mxCell>
        <mxCell id="jY21YstiSSDHYYgxmUfP-133" value="Check Change Password Codes" style="rounded=1;whiteSpace=wrap;html=1;fontSize=22;strokeWidth=3;" parent="mCqHA8PRsqlgezRZw-1g-43" vertex="1">
          <mxGeometry x="36.5" y="1110" width="161" height="105" as="geometry" />
        </mxCell>
        <mxCell id="jY21YstiSSDHYYgxmUfP-166" value="Change User Password" style="rounded=1;whiteSpace=wrap;html=1;fontSize=22;strokeWidth=3;" parent="mCqHA8PRsqlgezRZw-1g-43" vertex="1">
          <mxGeometry x="239" y="1110" width="161" height="105" as="geometry" />
        </mxCell>
        <mxCell id="jY21YstiSSDHYYgxmUfP-167" value="Get Execution Results" style="rounded=1;whiteSpace=wrap;html=1;fontSize=22;strokeWidth=3;" parent="mCqHA8PRsqlgezRZw-1g-43" vertex="1">
          <mxGeometry x="159.49999999999955" y="1242.5" width="120" height="105" as="geometry" />
        </mxCell>
        <mxCell id="jY21YstiSSDHYYgxmUfP-174" value="" style="endArrow=classic;html=1;rounded=0;exitX=1;exitY=0.5;exitDx=0;exitDy=0;entryX=0;entryY=0.5;entryDx=0;entryDy=0;strokeWidth=3;" parent="mCqHA8PRsqlgezRZw-1g-43" source="jY21YstiSSDHYYgxmUfP-133" target="jY21YstiSSDHYYgxmUfP-166" edge="1">
          <mxGeometry width="50" height="50" relative="1" as="geometry">
            <mxPoint x="-588" y="1172.5" as="sourcePoint" />
            <mxPoint x="-366" y="1172.5" as="targetPoint" />
          </mxGeometry>
        </mxCell>
        <mxCell id="jY21YstiSSDHYYgxmUfP-175" value="" style="endArrow=classic;html=1;rounded=0;exitX=0.5;exitY=1;exitDx=0;exitDy=0;entryX=1;entryY=0.5;entryDx=0;entryDy=0;edgeStyle=orthogonalEdgeStyle;strokeWidth=3;" parent="mCqHA8PRsqlgezRZw-1g-43" source="jY21YstiSSDHYYgxmUfP-166" target="jY21YstiSSDHYYgxmUfP-167" edge="1">
          <mxGeometry width="50" height="50" relative="1" as="geometry">
            <mxPoint x="-311" y="912.5" as="sourcePoint" />
            <mxPoint x="-261" y="862.5" as="targetPoint" />
          </mxGeometry>
        </mxCell>
        <mxCell id="jY21YstiSSDHYYgxmUfP-179" value="Process&lt;br&gt;Request" style="rounded=1;whiteSpace=wrap;html=1;fontSize=22;strokeWidth=3;" parent="mCqHA8PRsqlgezRZw-1g-43" vertex="1">
          <mxGeometry x="251" y="1362.5" width="157.5" height="105" as="geometry" />
        </mxCell>
        <mxCell id="jY21YstiSSDHYYgxmUfP-180" value="Disable/Enable User" style="rounded=1;whiteSpace=wrap;html=1;fontSize=22;strokeWidth=3;" parent="mCqHA8PRsqlgezRZw-1g-43" vertex="1">
          <mxGeometry x="33.25" y="1362.5" width="157.5" height="105" as="geometry" />
        </mxCell>
        <mxCell id="jY21YstiSSDHYYgxmUfP-181" value="Get Execution Results" style="rounded=1;whiteSpace=wrap;html=1;fontSize=22;strokeWidth=3;" parent="mCqHA8PRsqlgezRZw-1g-43" vertex="1">
          <mxGeometry x="159.49999999999955" y="1492.5" width="120" height="105" as="geometry" />
        </mxCell>
        <mxCell id="jY21YstiSSDHYYgxmUfP-183" value="" style="endArrow=classic;html=1;rounded=0;exitX=0;exitY=0.5;exitDx=0;exitDy=0;entryX=1;entryY=0.5;entryDx=0;entryDy=0;strokeWidth=3;" parent="mCqHA8PRsqlgezRZw-1g-43" source="jY21YstiSSDHYYgxmUfP-179" target="jY21YstiSSDHYYgxmUfP-180" edge="1">
          <mxGeometry width="50" height="50" relative="1" as="geometry">
            <mxPoint x="779" y="1042.5" as="sourcePoint" />
            <mxPoint x="829" y="992.5" as="targetPoint" />
          </mxGeometry>
        </mxCell>
        <mxCell id="jY21YstiSSDHYYgxmUfP-184" value="" style="endArrow=classic;html=1;rounded=0;exitX=0.5;exitY=1;exitDx=0;exitDy=0;entryX=0;entryY=0.5;entryDx=0;entryDy=0;edgeStyle=orthogonalEdgeStyle;strokeWidth=3;" parent="mCqHA8PRsqlgezRZw-1g-43" source="jY21YstiSSDHYYgxmUfP-180" target="jY21YstiSSDHYYgxmUfP-181" edge="1">
          <mxGeometry width="50" height="50" relative="1" as="geometry">
            <mxPoint x="229" y="1042.5" as="sourcePoint" />
            <mxPoint x="279" y="992.5" as="targetPoint" />
          </mxGeometry>
        </mxCell>
        <mxCell id="jY21YstiSSDHYYgxmUfP-187" value="Process&lt;br&gt;Request" style="rounded=1;whiteSpace=wrap;html=1;fontSize=22;strokeWidth=3;" parent="mCqHA8PRsqlgezRZw-1g-43" vertex="1">
          <mxGeometry x="242.5" y="1622.5" width="157.5" height="105" as="geometry" />
        </mxCell>
        <mxCell id="jY21YstiSSDHYYgxmUfP-188" value="Update User Information" style="rounded=1;whiteSpace=wrap;html=1;fontSize=22;strokeWidth=3;" parent="mCqHA8PRsqlgezRZw-1g-43" vertex="1">
          <mxGeometry x="24.75" y="1622.5" width="157.5" height="105" as="geometry" />
        </mxCell>
        <mxCell id="jY21YstiSSDHYYgxmUfP-189" value="Get Execution Results" style="rounded=1;whiteSpace=wrap;html=1;fontSize=22;strokeWidth=3;" parent="mCqHA8PRsqlgezRZw-1g-43" vertex="1">
          <mxGeometry x="150.99999999999955" y="1752.5" width="120" height="105" as="geometry" />
        </mxCell>
        <mxCell id="jY21YstiSSDHYYgxmUfP-190" value="" style="endArrow=classic;html=1;rounded=0;exitX=0;exitY=0.5;exitDx=0;exitDy=0;entryX=1;entryY=0.5;entryDx=0;entryDy=0;strokeWidth=3;" parent="mCqHA8PRsqlgezRZw-1g-43" source="jY21YstiSSDHYYgxmUfP-187" target="jY21YstiSSDHYYgxmUfP-188" edge="1">
          <mxGeometry width="50" height="50" relative="1" as="geometry">
            <mxPoint x="770.5" y="1302.5" as="sourcePoint" />
            <mxPoint x="820.5" y="1252.5" as="targetPoint" />
          </mxGeometry>
        </mxCell>
        <mxCell id="jY21YstiSSDHYYgxmUfP-191" value="" style="endArrow=classic;html=1;rounded=0;exitX=0.5;exitY=1;exitDx=0;exitDy=0;entryX=0;entryY=0.5;entryDx=0;entryDy=0;edgeStyle=orthogonalEdgeStyle;strokeWidth=3;" parent="mCqHA8PRsqlgezRZw-1g-43" source="jY21YstiSSDHYYgxmUfP-188" target="jY21YstiSSDHYYgxmUfP-189" edge="1">
          <mxGeometry width="50" height="50" relative="1" as="geometry">
            <mxPoint x="220.5" y="1302.5" as="sourcePoint" />
            <mxPoint x="270.5" y="1252.5" as="targetPoint" />
          </mxGeometry>
        </mxCell>
        <mxCell id="jY21YstiSSDHYYgxmUfP-194" value="Process&lt;br&gt;Request" style="rounded=1;whiteSpace=wrap;html=1;fontSize=22;strokeWidth=3;" parent="mCqHA8PRsqlgezRZw-1g-43" vertex="1">
          <mxGeometry x="251" y="1912.5" width="157.5" height="105" as="geometry" />
        </mxCell>
        <mxCell id="jY21YstiSSDHYYgxmUfP-195" value="Generate Change Password Codes" style="rounded=1;whiteSpace=wrap;html=1;fontSize=22;strokeWidth=3;" parent="mCqHA8PRsqlgezRZw-1g-43" vertex="1">
          <mxGeometry x="56" y="1912.5" width="147.5" height="105" as="geometry" />
        </mxCell>
        <mxCell id="jY21YstiSSDHYYgxmUfP-196" value="Send Activation Email" style="rounded=1;whiteSpace=wrap;html=1;fontSize=22;strokeWidth=3;" parent="mCqHA8PRsqlgezRZw-1g-43" vertex="1">
          <mxGeometry x="69.74999999999955" y="2052.5" width="120" height="105" as="geometry" />
        </mxCell>
        <mxCell id="jY21YstiSSDHYYgxmUfP-197" value="" style="endArrow=classic;html=1;rounded=0;exitX=0.5;exitY=1;exitDx=0;exitDy=0;entryX=0.5;entryY=0;entryDx=0;entryDy=0;edgeStyle=orthogonalEdgeStyle;strokeWidth=3;" parent="mCqHA8PRsqlgezRZw-1g-43" source="jY21YstiSSDHYYgxmUfP-195" target="jY21YstiSSDHYYgxmUfP-196" edge="1">
          <mxGeometry width="50" height="50" relative="1" as="geometry">
            <mxPoint x="4" y="1975" as="sourcePoint" />
            <mxPoint x="66" y="1975" as="targetPoint" />
          </mxGeometry>
        </mxCell>
        <mxCell id="jY21YstiSSDHYYgxmUfP-199" value="Get Execution Results" style="rounded=1;whiteSpace=wrap;html=1;fontSize=22;strokeWidth=3;" parent="mCqHA8PRsqlgezRZw-1g-43" vertex="1">
          <mxGeometry x="261.24999999999955" y="2052.5" width="120" height="105" as="geometry" />
        </mxCell>
        <mxCell id="jY21YstiSSDHYYgxmUfP-203" value="" style="endArrow=classic;html=1;rounded=0;exitX=0;exitY=0.5;exitDx=0;exitDy=0;entryX=1;entryY=0.5;entryDx=0;entryDy=0;strokeWidth=3;" parent="mCqHA8PRsqlgezRZw-1g-43" source="jY21YstiSSDHYYgxmUfP-194" target="jY21YstiSSDHYYgxmUfP-195" edge="1">
          <mxGeometry width="50" height="50" relative="1" as="geometry">
            <mxPoint x="709" y="2192.5" as="sourcePoint" />
            <mxPoint x="759" y="2142.5" as="targetPoint" />
          </mxGeometry>
        </mxCell>
        <mxCell id="jY21YstiSSDHYYgxmUfP-204" value="" style="endArrow=classic;html=1;rounded=0;exitX=1;exitY=0.5;exitDx=0;exitDy=0;entryX=0;entryY=0.5;entryDx=0;entryDy=0;strokeWidth=3;" parent="mCqHA8PRsqlgezRZw-1g-43" source="jY21YstiSSDHYYgxmUfP-196" target="jY21YstiSSDHYYgxmUfP-199" edge="1">
          <mxGeometry width="50" height="50" relative="1" as="geometry">
            <mxPoint x="261" y="1975" as="sourcePoint" />
            <mxPoint x="214" y="1975" as="targetPoint" />
          </mxGeometry>
        </mxCell>
        <mxCell id="jY21YstiSSDHYYgxmUfP-207" value="Process&lt;br&gt;Request" style="rounded=1;whiteSpace=wrap;html=1;fontSize=22;strokeWidth=3;" parent="mCqHA8PRsqlgezRZw-1g-43" vertex="1">
          <mxGeometry x="251" y="2212.5" width="157.5" height="105" as="geometry" />
        </mxCell>
        <mxCell id="jY21YstiSSDHYYgxmUfP-209" value="Logout Admin&lt;br&gt;Session" style="rounded=1;whiteSpace=wrap;html=1;fontSize=22;strokeWidth=3;" parent="mCqHA8PRsqlgezRZw-1g-43" vertex="1">
          <mxGeometry x="30.5" y="2212.5" width="157.5" height="105" as="geometry" />
        </mxCell>
        <mxCell id="jY21YstiSSDHYYgxmUfP-211" value="" style="endArrow=classic;html=1;rounded=0;exitX=0;exitY=0.5;exitDx=0;exitDy=0;entryX=1;entryY=0.5;entryDx=0;entryDy=0;strokeWidth=3;" parent="mCqHA8PRsqlgezRZw-1g-43" source="jY21YstiSSDHYYgxmUfP-207" target="jY21YstiSSDHYYgxmUfP-209" edge="1">
          <mxGeometry width="50" height="50" relative="1" as="geometry">
            <mxPoint x="1039" y="1762.5" as="sourcePoint" />
            <mxPoint x="1089" y="1712.5" as="targetPoint" />
          </mxGeometry>
        </mxCell>
        <mxCell id="mCqHA8PRsqlgezRZw-1g-5" value="Admin Browser" style="swimlane;startSize=20;html=1;fontSize=22;strokeWidth=3;" parent="mCqHA8PRsqlgezRZw-1g-1" vertex="1">
          <mxGeometry x="1490" y="20" width="850" height="2910" as="geometry" />
        </mxCell>
        <mxCell id="mCqHA8PRsqlgezRZw-1g-38" value="" style="ellipse;html=1;shape=startState;fillColor=#000000;strokeColor=#000000;gradientColor=none;fontSize=22;strokeWidth=3;" parent="mCqHA8PRsqlgezRZw-1g-5" vertex="1">
          <mxGeometry x="399.99999999999955" y="50" width="50" height="50" as="geometry" />
        </mxCell>
        <mxCell id="mCqHA8PRsqlgezRZw-1g-41" value="Login to Admin Page" style="rounded=1;whiteSpace=wrap;html=1;fontSize=22;strokeWidth=3;" parent="mCqHA8PRsqlgezRZw-1g-5" vertex="1">
          <mxGeometry x="364.99999999999955" y="220" width="120" height="105" as="geometry" />
        </mxCell>
        <mxCell id="mCqHA8PRsqlgezRZw-1g-47" value="Redirected To Admin Site" style="rounded=1;whiteSpace=wrap;html=1;fontSize=22;strokeWidth=3;" parent="mCqHA8PRsqlgezRZw-1g-5" vertex="1">
          <mxGeometry x="364.99999999999955" y="550" width="120" height="105" as="geometry" />
        </mxCell>
        <mxCell id="mCqHA8PRsqlgezRZw-1g-48" value="" style="endArrow=classic;html=1;rounded=0;exitX=0.5;exitY=1;exitDx=0;exitDy=0;entryX=0.5;entryY=0;entryDx=0;entryDy=0;fontSize=22;strokeWidth=3;" parent="mCqHA8PRsqlgezRZw-1g-5" source="mCqHA8PRsqlgezRZw-1g-38" target="mCqHA8PRsqlgezRZw-1g-41" edge="1">
          <mxGeometry width="50" height="50" relative="1" as="geometry">
            <mxPoint x="25" y="450" as="sourcePoint" />
            <mxPoint x="75" y="400" as="targetPoint" />
          </mxGeometry>
        </mxCell>
        <mxCell id="mCqHA8PRsqlgezRZw-1g-52" value="" style="rhombus;whiteSpace=wrap;html=1;fontSize=22;strokeWidth=3;" parent="mCqHA8PRsqlgezRZw-1g-5" vertex="1">
          <mxGeometry x="387.5" y="680" width="75" height="40" as="geometry" />
        </mxCell>
        <mxCell id="mCqHA8PRsqlgezRZw-1g-53" value="Activate User" style="rounded=1;whiteSpace=wrap;html=1;fontSize=22;strokeWidth=3;" parent="mCqHA8PRsqlgezRZw-1g-5" vertex="1">
          <mxGeometry x="22.499999999999545" y="770" width="120" height="105" as="geometry" />
        </mxCell>
        <mxCell id="mCqHA8PRsqlgezRZw-1g-54" value="Disable/Enable User" style="rounded=1;whiteSpace=wrap;html=1;fontSize=22;strokeWidth=3;" parent="mCqHA8PRsqlgezRZw-1g-5" vertex="1">
          <mxGeometry x="170" y="770" width="157.5" height="105" as="geometry" />
        </mxCell>
        <mxCell id="mCqHA8PRsqlgezRZw-1g-55" value="Update User Information" style="rounded=1;whiteSpace=wrap;html=1;fontSize=22;strokeWidth=3;" parent="mCqHA8PRsqlgezRZw-1g-5" vertex="1">
          <mxGeometry x="345" y="770" width="145" height="105" as="geometry" />
        </mxCell>
        <mxCell id="mCqHA8PRsqlgezRZw-1g-56" value="Generate Change Password Session" style="rounded=1;whiteSpace=wrap;html=1;fontSize=22;strokeWidth=3;" parent="mCqHA8PRsqlgezRZw-1g-5" vertex="1">
          <mxGeometry x="512.5" y="770" width="155" height="105" as="geometry" />
        </mxCell>
        <mxCell id="mCqHA8PRsqlgezRZw-1g-57" value="" style="endArrow=classic;html=1;rounded=0;exitX=0.5;exitY=1;exitDx=0;exitDy=0;entryX=0.5;entryY=0;entryDx=0;entryDy=0;fontSize=22;strokeWidth=3;" parent="mCqHA8PRsqlgezRZw-1g-5" source="mCqHA8PRsqlgezRZw-1g-47" target="mCqHA8PRsqlgezRZw-1g-52" edge="1">
          <mxGeometry width="50" height="50" relative="1" as="geometry">
            <mxPoint x="465" y="410" as="sourcePoint" />
            <mxPoint x="515" y="360" as="targetPoint" />
          </mxGeometry>
        </mxCell>
        <mxCell id="mCqHA8PRsqlgezRZw-1g-58" value="" style="endArrow=classic;html=1;rounded=0;entryX=0.5;entryY=0;entryDx=0;entryDy=0;fontSize=22;strokeWidth=3;" parent="mCqHA8PRsqlgezRZw-1g-5" source="mCqHA8PRsqlgezRZw-1g-52" target="mCqHA8PRsqlgezRZw-1g-53" edge="1">
          <mxGeometry width="50" height="50" relative="1" as="geometry">
            <mxPoint x="195" y="740" as="sourcePoint" />
            <mxPoint x="395" y="680" as="targetPoint" />
          </mxGeometry>
        </mxCell>
        <mxCell id="mCqHA8PRsqlgezRZw-1g-59" value="" style="endArrow=classic;html=1;rounded=0;entryX=0.5;entryY=0;entryDx=0;entryDy=0;fontSize=22;strokeWidth=3;" parent="mCqHA8PRsqlgezRZw-1g-5" source="mCqHA8PRsqlgezRZw-1g-52" target="mCqHA8PRsqlgezRZw-1g-54" edge="1">
          <mxGeometry width="50" height="50" relative="1" as="geometry">
            <mxPoint x="330" y="717" as="sourcePoint" />
            <mxPoint x="92" y="780" as="targetPoint" />
          </mxGeometry>
        </mxCell>
        <mxCell id="mCqHA8PRsqlgezRZw-1g-60" value="" style="endArrow=classic;html=1;rounded=0;entryX=0.5;entryY=0;entryDx=0;entryDy=0;fontSize=22;strokeWidth=3;" parent="mCqHA8PRsqlgezRZw-1g-5" source="mCqHA8PRsqlgezRZw-1g-52" target="mCqHA8PRsqlgezRZw-1g-55" edge="1">
          <mxGeometry width="50" height="50" relative="1" as="geometry">
            <mxPoint x="339" y="721" as="sourcePoint" />
            <mxPoint x="255" y="780" as="targetPoint" />
          </mxGeometry>
        </mxCell>
        <mxCell id="mCqHA8PRsqlgezRZw-1g-61" value="" style="endArrow=classic;html=1;rounded=0;entryX=0.5;entryY=0;entryDx=0;entryDy=0;fontSize=22;strokeWidth=3;" parent="mCqHA8PRsqlgezRZw-1g-5" source="mCqHA8PRsqlgezRZw-1g-52" target="mCqHA8PRsqlgezRZw-1g-56" edge="1">
          <mxGeometry width="50" height="50" relative="1" as="geometry">
            <mxPoint x="368" y="723" as="sourcePoint" />
            <mxPoint x="428" y="780" as="targetPoint" />
          </mxGeometry>
        </mxCell>
        <mxCell id="mCqHA8PRsqlgezRZw-1g-63" value="Logout" style="rounded=1;whiteSpace=wrap;html=1;fontSize=22;strokeWidth=3;" parent="mCqHA8PRsqlgezRZw-1g-5" vertex="1">
          <mxGeometry x="695" y="770" width="125" height="105" as="geometry" />
        </mxCell>
        <mxCell id="mCqHA8PRsqlgezRZw-1g-64" value="" style="endArrow=classic;html=1;rounded=0;entryX=0.5;entryY=0;entryDx=0;entryDy=0;fontSize=22;strokeWidth=3;" parent="mCqHA8PRsqlgezRZw-1g-5" source="mCqHA8PRsqlgezRZw-1g-52" target="mCqHA8PRsqlgezRZw-1g-63" edge="1">
          <mxGeometry width="50" height="50" relative="1" as="geometry">
            <mxPoint x="551.5" y="707" as="sourcePoint" />
            <mxPoint x="610.5" y="780" as="targetPoint" />
          </mxGeometry>
        </mxCell>
        <mxCell id="mCqHA8PRsqlgezRZw-1g-70" value="Get Execution Results" style="rounded=1;whiteSpace=wrap;html=1;fontSize=22;strokeWidth=3;" parent="mCqHA8PRsqlgezRZw-1g-5" vertex="1">
          <mxGeometry x="39.999999999999545" y="940" width="120" height="105" as="geometry" />
        </mxCell>
        <mxCell id="mCqHA8PRsqlgezRZw-1g-76" value="" style="endArrow=classic;html=1;rounded=0;entryX=1;entryY=0.5;entryDx=0;entryDy=0;exitX=0.5;exitY=0;exitDx=0;exitDy=0;edgeStyle=orthogonalEdgeStyle;fontSize=22;strokeWidth=3;" parent="mCqHA8PRsqlgezRZw-1g-5" source="mCqHA8PRsqlgezRZw-1g-70" target="mCqHA8PRsqlgezRZw-1g-52" edge="1">
          <mxGeometry width="50" height="50" relative="1" as="geometry">
            <mxPoint x="-94" y="990" as="sourcePoint" />
            <mxPoint x="32" y="990" as="targetPoint" />
            <Array as="points">
              <mxPoint x="100" y="920" />
              <mxPoint x="840" y="920" />
              <mxPoint x="840" y="700" />
            </Array>
          </mxGeometry>
        </mxCell>
        <mxCell id="mCqHA8PRsqlgezRZw-1g-81" value="Get Execution Results" style="rounded=1;whiteSpace=wrap;html=1;fontSize=22;strokeWidth=3;" parent="mCqHA8PRsqlgezRZw-1g-5" vertex="1">
          <mxGeometry x="184.99999999999955" y="940" width="120" height="105" as="geometry" />
        </mxCell>
        <mxCell id="mCqHA8PRsqlgezRZw-1g-82" value="Get Execution Results" style="rounded=1;whiteSpace=wrap;html=1;fontSize=22;strokeWidth=3;" parent="mCqHA8PRsqlgezRZw-1g-5" vertex="1">
          <mxGeometry x="357.49999999999955" y="940" width="120" height="105" as="geometry" />
        </mxCell>
        <mxCell id="mCqHA8PRsqlgezRZw-1g-83" value="Get Execution Results" style="rounded=1;whiteSpace=wrap;html=1;fontSize=22;strokeWidth=3;" parent="mCqHA8PRsqlgezRZw-1g-5" vertex="1">
          <mxGeometry x="529.9999999999995" y="940" width="120" height="105" as="geometry" />
        </mxCell>
        <mxCell id="jY21YstiSSDHYYgxmUfP-186" value="" style="endArrow=classic;html=1;rounded=0;exitX=0.5;exitY=0;exitDx=0;exitDy=0;entryX=1;entryY=0.5;entryDx=0;entryDy=0;edgeStyle=orthogonalEdgeStyle;strokeWidth=3;" parent="mCqHA8PRsqlgezRZw-1g-5" source="mCqHA8PRsqlgezRZw-1g-81" target="mCqHA8PRsqlgezRZw-1g-52" edge="1">
          <mxGeometry width="50" height="50" relative="1" as="geometry">
            <mxPoint x="440" y="830" as="sourcePoint" />
            <mxPoint x="490" y="780" as="targetPoint" />
            <Array as="points">
              <mxPoint x="245" y="920" />
              <mxPoint x="840" y="920" />
              <mxPoint x="840" y="700" />
            </Array>
          </mxGeometry>
        </mxCell>
        <mxCell id="mCqHA8PRsqlgezRZw-1g-71" value="" style="endArrow=classic;html=1;rounded=0;entryX=1;entryY=0.5;entryDx=0;entryDy=0;exitX=0.5;exitY=1;exitDx=0;exitDy=0;edgeStyle=orthogonalEdgeStyle;fontSize=22;strokeWidth=3;" parent="mCqHA8PRsqlgezRZw-1g-5" source="mCqHA8PRsqlgezRZw-1g-53" edge="1">
          <mxGeometry width="50" height="50" relative="1" as="geometry">
            <mxPoint x="82.49999999999955" y="862.5" as="sourcePoint" />
            <mxPoint x="-142.00000000000045" y="810" as="targetPoint" />
            <Array as="points">
              <mxPoint x="83" y="897" />
              <mxPoint x="-60" y="897" />
              <mxPoint x="-60" y="810" />
            </Array>
          </mxGeometry>
        </mxCell>
        <mxCell id="jY21YstiSSDHYYgxmUfP-206" value="" style="endArrow=classic;html=1;rounded=0;exitX=0.5;exitY=0;exitDx=0;exitDy=0;entryX=1;entryY=0.5;entryDx=0;entryDy=0;edgeStyle=orthogonalEdgeStyle;strokeWidth=3;" parent="mCqHA8PRsqlgezRZw-1g-5" source="mCqHA8PRsqlgezRZw-1g-83" target="mCqHA8PRsqlgezRZw-1g-52" edge="1">
          <mxGeometry width="50" height="50" relative="1" as="geometry">
            <mxPoint x="800" y="830" as="sourcePoint" />
            <mxPoint x="850" y="780" as="targetPoint" />
            <Array as="points">
              <mxPoint x="590" y="920" />
              <mxPoint x="840" y="920" />
              <mxPoint x="840" y="700" />
            </Array>
          </mxGeometry>
        </mxCell>
        <mxCell id="jY21YstiSSDHYYgxmUfP-212" value="" style="ellipse;html=1;shape=endState;fillColor=#000000;strokeColor=#000000;fontSize=22;strokeWidth=3;" parent="mCqHA8PRsqlgezRZw-1g-5" vertex="1">
          <mxGeometry x="363" y="2780" width="45" height="45" as="geometry" />
        </mxCell>
        <mxCell id="mCqHA8PRsqlgezRZw-1g-14" value="" style="endArrow=classic;html=1;rounded=0;fontSize=22;exitX=0.5;exitY=1;exitDx=0;exitDy=0;entryX=0.5;entryY=1;entryDx=0;entryDy=0;edgeStyle=orthogonalEdgeStyle;strokeWidth=3;" parent="mCqHA8PRsqlgezRZw-1g-1" source="mCqHA8PRsqlgezRZw-1g-8" target="mCqHA8PRsqlgezRZw-1g-10" edge="1">
          <mxGeometry width="50" height="50" relative="1" as="geometry">
            <mxPoint x="4.999999999999545" y="320" as="sourcePoint" />
            <mxPoint x="314.99999999999955" y="340" as="targetPoint" />
            <Array as="points">
              <mxPoint x="245" y="370" />
              <mxPoint x="625" y="370" />
            </Array>
          </mxGeometry>
        </mxCell>
        <mxCell id="mCqHA8PRsqlgezRZw-1g-15" value="" style="endArrow=classic;html=1;rounded=0;fontSize=22;entryX=0;entryY=0.5;entryDx=0;entryDy=0;strokeWidth=3;" parent="mCqHA8PRsqlgezRZw-1g-1" source="mCqHA8PRsqlgezRZw-1g-9" target="mCqHA8PRsqlgezRZw-1g-78" edge="1">
          <mxGeometry width="50" height="50" relative="1" as="geometry">
            <mxPoint x="-30.000000000000455" y="305" as="sourcePoint" />
            <mxPoint x="980" y="210" as="targetPoint" />
          </mxGeometry>
        </mxCell>
        <mxCell id="mCqHA8PRsqlgezRZw-1g-16" value="" style="endArrow=classic;html=1;rounded=0;edgeStyle=orthogonalEdgeStyle;entryX=1;entryY=0.5;entryDx=0;entryDy=0;exitX=0.5;exitY=1;exitDx=0;exitDy=0;fontSize=22;strokeWidth=3;" parent="mCqHA8PRsqlgezRZw-1g-1" source="mCqHA8PRsqlgezRZw-1g-13" target="mCqHA8PRsqlgezRZw-1g-12" edge="1">
          <mxGeometry width="50" height="50" relative="1" as="geometry">
            <mxPoint x="5" y="400" as="sourcePoint" />
            <mxPoint x="55" y="350" as="targetPoint" />
            <Array as="points">
              <mxPoint x="1199" y="330" />
              <mxPoint x="825" y="330" />
              <mxPoint x="825" y="450" />
            </Array>
          </mxGeometry>
        </mxCell>
        <mxCell id="mCqHA8PRsqlgezRZw-1g-17" value="" style="endArrow=classic;html=1;rounded=0;exitX=0;exitY=0.5;exitDx=0;exitDy=0;fontSize=22;entryX=1;entryY=0.5;entryDx=0;entryDy=0;strokeWidth=3;" parent="mCqHA8PRsqlgezRZw-1g-1" source="mCqHA8PRsqlgezRZw-1g-12" target="mCqHA8PRsqlgezRZw-1g-22" edge="1">
          <mxGeometry width="50" height="50" relative="1" as="geometry">
            <mxPoint x="5" y="400" as="sourcePoint" />
            <mxPoint x="345" y="510" as="targetPoint" />
          </mxGeometry>
        </mxCell>
        <mxCell id="mCqHA8PRsqlgezRZw-1g-49" value="" style="endArrow=classic;html=1;rounded=0;exitX=0.5;exitY=1;exitDx=0;exitDy=0;entryX=1;entryY=0.5;entryDx=0;entryDy=0;edgeStyle=orthogonalEdgeStyle;fontSize=22;strokeWidth=3;" parent="mCqHA8PRsqlgezRZw-1g-1" source="mCqHA8PRsqlgezRZw-1g-41" target="mCqHA8PRsqlgezRZw-1g-45" edge="1">
          <mxGeometry width="50" height="50" relative="1" as="geometry">
            <mxPoint x="1580" y="120" as="sourcePoint" />
            <mxPoint x="1585" y="240" as="targetPoint" />
          </mxGeometry>
        </mxCell>
        <mxCell id="mCqHA8PRsqlgezRZw-1g-51" value="" style="endArrow=classic;html=1;rounded=0;exitX=0.5;exitY=1;exitDx=0;exitDy=0;entryX=0;entryY=0.5;entryDx=0;entryDy=0;edgeStyle=orthogonalEdgeStyle;fontSize=22;strokeWidth=3;" parent="mCqHA8PRsqlgezRZw-1g-1" source="mCqHA8PRsqlgezRZw-1g-46" target="mCqHA8PRsqlgezRZw-1g-47" edge="1">
          <mxGeometry width="50" height="50" relative="1" as="geometry">
            <mxPoint x="1136" y="525.5" as="sourcePoint" />
            <mxPoint x="1096" y="525.5" as="targetPoint" />
          </mxGeometry>
        </mxCell>
        <mxCell id="mCqHA8PRsqlgezRZw-1g-75" value="" style="endArrow=classic;html=1;rounded=0;entryX=0.5;entryY=1;entryDx=0;entryDy=0;exitX=1;exitY=0.5;exitDx=0;exitDy=0;edgeStyle=orthogonalEdgeStyle;fontSize=22;strokeWidth=3;" parent="mCqHA8PRsqlgezRZw-1g-1" source="mCqHA8PRsqlgezRZw-1g-69" target="mCqHA8PRsqlgezRZw-1g-70" edge="1">
          <mxGeometry width="50" height="50" relative="1" as="geometry">
            <mxPoint x="1100" y="960.5" as="sourcePoint" />
            <mxPoint x="1136" y="960.5" as="targetPoint" />
            <Array as="points">
              <mxPoint x="1445" y="963" />
              <mxPoint x="1445" y="1130" />
              <mxPoint x="1590" y="1130" />
            </Array>
          </mxGeometry>
        </mxCell>
        <mxCell id="jY21YstiSSDHYYgxmUfP-40" value="" style="endArrow=classic;html=1;rounded=0;exitX=0.5;exitY=1;exitDx=0;exitDy=0;entryX=0;entryY=0.5;entryDx=0;entryDy=0;edgeStyle=orthogonalEdgeStyle;fontSize=22;strokeWidth=3;" parent="mCqHA8PRsqlgezRZw-1g-1" source="mCqHA8PRsqlgezRZw-1g-25" target="jY21YstiSSDHYYgxmUfP-2" edge="1">
          <mxGeometry width="50" height="50" relative="1" as="geometry">
            <mxPoint x="850" y="780" as="sourcePoint" />
            <mxPoint x="900" y="730" as="targetPoint" />
          </mxGeometry>
        </mxCell>
        <mxCell id="jY21YstiSSDHYYgxmUfP-44" value="" style="endArrow=classic;html=1;rounded=0;exitX=1;exitY=0.5;exitDx=0;exitDy=0;entryX=0;entryY=0.5;entryDx=0;entryDy=0;fontSize=22;strokeWidth=3;" parent="mCqHA8PRsqlgezRZw-1g-1" source="jY21YstiSSDHYYgxmUfP-15" target="jY21YstiSSDHYYgxmUfP-17" edge="1">
          <mxGeometry width="50" height="50" relative="1" as="geometry">
            <mxPoint x="850" y="660" as="sourcePoint" />
            <mxPoint x="900" y="610" as="targetPoint" />
          </mxGeometry>
        </mxCell>
        <mxCell id="jY21YstiSSDHYYgxmUfP-109" value="" style="endArrow=classic;html=1;rounded=0;exitX=0.5;exitY=1;exitDx=0;exitDy=0;entryX=0;entryY=0.5;entryDx=0;entryDy=0;edgeStyle=orthogonalEdgeStyle;strokeWidth=3;" parent="mCqHA8PRsqlgezRZw-1g-1" source="jY21YstiSSDHYYgxmUfP-3" target="jY21YstiSSDHYYgxmUfP-50" edge="1">
          <mxGeometry width="50" height="50" relative="1" as="geometry">
            <mxPoint x="450" y="710" as="sourcePoint" />
            <mxPoint x="500" y="660" as="targetPoint" />
            <Array as="points">
              <mxPoint x="90" y="983" />
            </Array>
          </mxGeometry>
        </mxCell>
        <mxCell id="jY21YstiSSDHYYgxmUfP-111" value="" style="endArrow=classic;html=1;rounded=0;exitX=0.5;exitY=1;exitDx=0;exitDy=0;entryX=0;entryY=0.5;entryDx=0;entryDy=0;edgeStyle=orthogonalEdgeStyle;strokeWidth=3;" parent="mCqHA8PRsqlgezRZw-1g-1" source="jY21YstiSSDHYYgxmUfP-51" target="jY21YstiSSDHYYgxmUfP-79" edge="1">
          <mxGeometry width="50" height="50" relative="1" as="geometry">
            <mxPoint x="1010" y="930" as="sourcePoint" />
            <mxPoint x="1060" y="880" as="targetPoint" />
          </mxGeometry>
        </mxCell>
        <mxCell id="jY21YstiSSDHYYgxmUfP-116" value="" style="endArrow=classic;html=1;rounded=0;exitX=0;exitY=0.5;exitDx=0;exitDy=0;entryX=1;entryY=0.5;entryDx=0;entryDy=0;strokeWidth=3;" parent="mCqHA8PRsqlgezRZw-1g-1" source="mCqHA8PRsqlgezRZw-1g-67" target="jY21YstiSSDHYYgxmUfP-115" edge="1">
          <mxGeometry width="50" height="50" relative="1" as="geometry">
            <mxPoint x="840" y="1190" as="sourcePoint" />
            <mxPoint x="890" y="1140" as="targetPoint" />
          </mxGeometry>
        </mxCell>
        <mxCell id="jY21YstiSSDHYYgxmUfP-117" value="" style="endArrow=classic;html=1;rounded=0;exitX=0;exitY=0.5;exitDx=0;exitDy=0;entryX=1;entryY=0.5;entryDx=0;entryDy=0;edgeStyle=orthogonalEdgeStyle;strokeWidth=3;" parent="mCqHA8PRsqlgezRZw-1g-1" source="jY21YstiSSDHYYgxmUfP-107" target="jY21YstiSSDHYYgxmUfP-115" edge="1">
          <mxGeometry width="50" height="50" relative="1" as="geometry">
            <mxPoint x="840" y="1190" as="sourcePoint" />
            <mxPoint x="890" y="1140" as="targetPoint" />
            <Array as="points">
              <mxPoint x="420" y="1413" />
              <mxPoint x="420" y="1113" />
            </Array>
          </mxGeometry>
        </mxCell>
        <mxCell id="jY21YstiSSDHYYgxmUfP-131" value="" style="endArrow=classic;html=1;rounded=0;exitX=1;exitY=0.5;exitDx=0;exitDy=0;entryX=0;entryY=0.5;entryDx=0;entryDy=0;strokeWidth=3;" parent="mCqHA8PRsqlgezRZw-1g-1" source="jY21YstiSSDHYYgxmUfP-123" target="jY21YstiSSDHYYgxmUfP-129" edge="1">
          <mxGeometry width="50" height="50" relative="1" as="geometry">
            <mxPoint x="740" y="1220" as="sourcePoint" />
            <mxPoint x="790" y="1170" as="targetPoint" />
          </mxGeometry>
        </mxCell>
        <mxCell id="jY21YstiSSDHYYgxmUfP-173" value="" style="endArrow=classic;html=1;rounded=0;exitX=1;exitY=0.5;exitDx=0;exitDy=0;entryX=0;entryY=0.5;entryDx=0;entryDy=0;strokeWidth=3;" parent="mCqHA8PRsqlgezRZw-1g-1" source="jY21YstiSSDHYYgxmUfP-130" target="jY21YstiSSDHYYgxmUfP-133" edge="1">
          <mxGeometry width="50" height="50" relative="1" as="geometry">
            <mxPoint x="620" y="1360" as="sourcePoint" />
            <mxPoint x="670" y="1310" as="targetPoint" />
          </mxGeometry>
        </mxCell>
        <mxCell id="jY21YstiSSDHYYgxmUfP-176" value="" style="endArrow=classic;html=1;rounded=0;exitX=0;exitY=0.5;exitDx=0;exitDy=0;entryX=1;entryY=0.5;entryDx=0;entryDy=0;strokeWidth=3;" parent="mCqHA8PRsqlgezRZw-1g-1" source="jY21YstiSSDHYYgxmUfP-167" target="jY21YstiSSDHYYgxmUfP-172" edge="1">
          <mxGeometry width="50" height="50" relative="1" as="geometry">
            <mxPoint x="620" y="1340" as="sourcePoint" />
            <mxPoint x="670" y="1290" as="targetPoint" />
          </mxGeometry>
        </mxCell>
        <mxCell id="jY21YstiSSDHYYgxmUfP-177" value="" style="endArrow=classic;html=1;rounded=0;exitX=0;exitY=0.5;exitDx=0;exitDy=0;entryX=1;entryY=0.5;entryDx=0;entryDy=0;strokeWidth=3;" parent="mCqHA8PRsqlgezRZw-1g-1" source="jY21YstiSSDHYYgxmUfP-172" target="jY21YstiSSDHYYgxmUfP-168" edge="1">
          <mxGeometry width="50" height="50" relative="1" as="geometry">
            <mxPoint x="620" y="1340" as="sourcePoint" />
            <mxPoint x="670" y="1290" as="targetPoint" />
          </mxGeometry>
        </mxCell>
        <mxCell id="jY21YstiSSDHYYgxmUfP-182" value="" style="endArrow=classic;html=1;rounded=0;exitX=0.5;exitY=1;exitDx=0;exitDy=0;entryX=1;entryY=0.5;entryDx=0;entryDy=0;edgeStyle=orthogonalEdgeStyle;strokeWidth=3;" parent="mCqHA8PRsqlgezRZw-1g-1" source="mCqHA8PRsqlgezRZw-1g-54" target="jY21YstiSSDHYYgxmUfP-179" edge="1">
          <mxGeometry width="50" height="50" relative="1" as="geometry">
            <mxPoint x="1640" y="1270" as="sourcePoint" />
            <mxPoint x="1690" y="1220" as="targetPoint" />
            <Array as="points">
              <mxPoint x="1739" y="920" />
              <mxPoint x="1660" y="920" />
              <mxPoint x="1660" y="1843" />
            </Array>
          </mxGeometry>
        </mxCell>
        <mxCell id="jY21YstiSSDHYYgxmUfP-185" value="" style="endArrow=classic;html=1;rounded=0;exitX=1;exitY=0.5;exitDx=0;exitDy=0;entryX=0.5;entryY=1;entryDx=0;entryDy=0;edgeStyle=orthogonalEdgeStyle;strokeWidth=3;" parent="mCqHA8PRsqlgezRZw-1g-1" source="jY21YstiSSDHYYgxmUfP-181" target="mCqHA8PRsqlgezRZw-1g-81" edge="1">
          <mxGeometry width="50" height="50" relative="1" as="geometry">
            <mxPoint x="1160" y="1470" as="sourcePoint" />
            <mxPoint x="1210" y="1420" as="targetPoint" />
          </mxGeometry>
        </mxCell>
        <mxCell id="jY21YstiSSDHYYgxmUfP-192" value="" style="endArrow=classic;html=1;rounded=0;entryX=1;entryY=0.5;entryDx=0;entryDy=0;edgeStyle=orthogonalEdgeStyle;exitX=0.5;exitY=1;exitDx=0;exitDy=0;strokeWidth=3;" parent="mCqHA8PRsqlgezRZw-1g-1" source="mCqHA8PRsqlgezRZw-1g-55" target="jY21YstiSSDHYYgxmUfP-187" edge="1">
          <mxGeometry width="50" height="50" relative="1" as="geometry">
            <mxPoint x="1910" y="910" as="sourcePoint" />
            <mxPoint x="1330" y="1060" as="targetPoint" />
            <Array as="points">
              <mxPoint x="1907" y="920" />
              <mxPoint x="1820" y="920" />
              <mxPoint x="1820" y="2103" />
            </Array>
          </mxGeometry>
        </mxCell>
        <mxCell id="jY21YstiSSDHYYgxmUfP-193" value="" style="endArrow=classic;html=1;rounded=0;exitX=1;exitY=0.5;exitDx=0;exitDy=0;entryX=0.5;entryY=1;entryDx=0;entryDy=0;edgeStyle=orthogonalEdgeStyle;strokeWidth=3;" parent="mCqHA8PRsqlgezRZw-1g-1" source="jY21YstiSSDHYYgxmUfP-189" target="mCqHA8PRsqlgezRZw-1g-82" edge="1">
          <mxGeometry width="50" height="50" relative="1" as="geometry">
            <mxPoint x="1790" y="1600" as="sourcePoint" />
            <mxPoint x="1840" y="1550" as="targetPoint" />
          </mxGeometry>
        </mxCell>
        <mxCell id="jY21YstiSSDHYYgxmUfP-200" value="" style="endArrow=classic;html=1;rounded=0;entryX=1;entryY=0.5;entryDx=0;entryDy=0;edgeStyle=orthogonalEdgeStyle;exitX=0.5;exitY=1;exitDx=0;exitDy=0;strokeWidth=3;" parent="mCqHA8PRsqlgezRZw-1g-1" source="mCqHA8PRsqlgezRZw-1g-56" target="jY21YstiSSDHYYgxmUfP-194" edge="1">
          <mxGeometry width="50" height="50" relative="1" as="geometry">
            <mxPoint x="2080" y="921" as="sourcePoint" />
            <mxPoint x="1080" y="2270" as="targetPoint" />
            <Array as="points">
              <mxPoint x="2080" y="921" />
              <mxPoint x="1990" y="921" />
              <mxPoint x="1990" y="2392" />
            </Array>
          </mxGeometry>
        </mxCell>
        <mxCell id="jY21YstiSSDHYYgxmUfP-205" value="" style="endArrow=classic;html=1;rounded=0;exitX=1;exitY=0.5;exitDx=0;exitDy=0;entryX=0.5;entryY=1;entryDx=0;entryDy=0;edgeStyle=orthogonalEdgeStyle;strokeWidth=3;" parent="mCqHA8PRsqlgezRZw-1g-1" source="jY21YstiSSDHYYgxmUfP-199" target="mCqHA8PRsqlgezRZw-1g-83" edge="1">
          <mxGeometry width="50" height="50" relative="1" as="geometry">
            <mxPoint x="1610" y="2550" as="sourcePoint" />
            <mxPoint x="1660" y="2500" as="targetPoint" />
          </mxGeometry>
        </mxCell>
        <mxCell id="jY21YstiSSDHYYgxmUfP-210" value="" style="endArrow=classic;html=1;rounded=0;exitX=0.5;exitY=1;exitDx=0;exitDy=0;entryX=1;entryY=0.5;entryDx=0;entryDy=0;edgeStyle=orthogonalEdgeStyle;strokeWidth=3;" parent="mCqHA8PRsqlgezRZw-1g-1" source="mCqHA8PRsqlgezRZw-1g-63" target="jY21YstiSSDHYYgxmUfP-207" edge="1">
          <mxGeometry width="50" height="50" relative="1" as="geometry">
            <mxPoint x="1970" y="1390" as="sourcePoint" />
            <mxPoint x="2020" y="1340" as="targetPoint" />
          </mxGeometry>
        </mxCell>
        <mxCell id="jY21YstiSSDHYYgxmUfP-213" value="" style="endArrow=classic;html=1;rounded=0;exitX=0.5;exitY=1;exitDx=0;exitDy=0;entryX=0;entryY=0.5;entryDx=0;entryDy=0;edgeStyle=orthogonalEdgeStyle;strokeWidth=3;" parent="mCqHA8PRsqlgezRZw-1g-1" source="jY21YstiSSDHYYgxmUfP-209" target="jY21YstiSSDHYYgxmUfP-212" edge="1">
          <mxGeometry width="50" height="50" relative="1" as="geometry">
            <mxPoint x="1710" y="2130" as="sourcePoint" />
            <mxPoint x="1710" y="2870" as="targetPoint" />
          </mxGeometry>
        </mxCell>
        <mxCell id="jY21YstiSSDHYYgxmUfP-215" value="" style="endArrow=classic;html=1;rounded=0;exitX=0;exitY=0.5;exitDx=0;exitDy=0;entryX=1;entryY=0.5;entryDx=0;entryDy=0;edgeStyle=orthogonalEdgeStyle;strokeWidth=3;" parent="mCqHA8PRsqlgezRZw-1g-1" source="jY21YstiSSDHYYgxmUfP-196" target="jY21YstiSSDHYYgxmUfP-115" edge="1">
          <mxGeometry width="50" height="50" relative="1" as="geometry">
            <mxPoint x="-150" y="2360" as="sourcePoint" />
            <mxPoint x="-100" y="2310" as="targetPoint" />
            <Array as="points">
              <mxPoint x="420" y="2533" />
              <mxPoint x="420" y="1113" />
            </Array>
          </mxGeometry>
        </mxCell>
        <mxCell id="XZR2OZUNLJQ3luwsU4V_-1" value="Text" style="text;html=1;align=center;verticalAlign=middle;resizable=0;points=[];autosize=1;strokeColor=none;fillColor=none;" vertex="1" parent="1">
          <mxGeometry x="165" y="298" width="50" height="30" as="geometry" />
        </mxCell>
      </root>
    </mxGraphModel>
  </diagram>
</mxfile>
